<svg xmlns="http://www.w3.org/2000/svg" xmlns:xlink="http://www.w3.org/1999/xlink" viewBox="0 0 160 160"><defs><style>.cls-1{fill:#131a1e;}.cls-2{fill:#33434f;}.cls-3{fill:#7a8791;}.cls-4{fill:url(#linear-gradient);}.cls-5{fill:url(#linear-gradient-2);}.cls-6{fill:none;}.cls-7{fill:#f26922;}.cls-8{fill:#f58e59;}.cls-9{fill:#fff;}.cls-10{opacity:0.2;fill:url(#linear-gradient-3);}.cls-11{opacity:0.5;}</style><linearGradient id="linear-gradient" x1="33.49" y1="77.36" x2="124.92" y2="77.36" gradientUnits="userSpaceOnUse"><stop offset="0.21" stop-color="#61cca2"/><stop offset="1" stop-color="#30af8f"/></linearGradient><linearGradient id="linear-gradient-2" x1="81.64" y1="72.32" x2="100.29" y2="72.32" gradientUnits="userSpaceOnUse"><stop offset="0.21" stop-color="#cce6d1"/><stop offset="1" stop-color="#bcdfd1"/></linearGradient><linearGradient id="linear-gradient-3" x1="79.94" y1="139.37" x2="79.94" y2="134.15" gradientUnits="userSpaceOnUse"><stop offset="0.09" stop-color="#33424f" stop-opacity="0"/><stop offset="1" stop-color="#33424f"/></linearGradient></defs><title>logo-sendle-carbon-neutral</title><g id="Layer_2" data-name="Layer 2"><g id="Layer_1-2" data-name="Layer 1"><polygon class="cls-1" points="12 102.1 18.4 96.9 21.9 107.8 13.7 104.6 12 102.1"/><polygon class="cls-1" points="147.9 102.1 141.5 97.1 139.6 103 146.1 104.9 147.9 102.1"/><path class="cls-2" d="M20.2,73.7,20,75.5l-5-.5H13.3l.5.7.7,1.1-1.2.8-2-3V72.9Z"/><path class="cls-2" d="M17.2,65.3a6,6,0,0,1,3.2,1.4,2.6,2.6,0,0,1,.6,2.5,2.6,2.6,0,0,1-1.5,2,5.9,5.9,0,0,1-3.4.1,6.1,6.1,0,0,1-3.2-1.4,2.9,2.9,0,0,1,.9-4.5A6,6,0,0,1,17.2,65.3Zm-.8,4.2a6.7,6.7,0,0,0,2.3.2,1,1,0,0,0,.4-1.8,6.5,6.5,0,0,0-2.2-.7,6.5,6.5,0,0,0-2.3-.2,1,1,0,0,0-.4,1.8A6.7,6.7,0,0,0,16.4,69.5Z"/><path class="cls-2" d="M19.1,59a6,6,0,0,1,3,1.7,2.6,2.6,0,0,1,.4,2.5,2.6,2.6,0,0,1-1.8,1.9,5.9,5.9,0,0,1-3.4-.2,6.1,6.1,0,0,1-3-1.7,2.9,2.9,0,0,1,1.4-4.4A6,6,0,0,1,19.1,59Zm-1.3,4.1a6.7,6.7,0,0,0,2.3.4,1,1,0,0,0,.5-1.8,6.5,6.5,0,0,0-2.1-.9,6.5,6.5,0,0,0-2.3-.4,1,1,0,0,0-.5,1.8A6.7,6.7,0,0,0,17.9,63.1Z"/><path class="cls-2" d="M19.3,54A3.3,3.3,0,0,1,21,55.3a1.9,1.9,0,0,1,0,1.7,1.8,1.8,0,0,1-1.3,1.1,3.3,3.3,0,0,1-2.1-.4q-2.5-1.1-1.6-3a1.8,1.8,0,0,1,1.3-1.1A3.2,3.2,0,0,1,19.3,54Zm-1.1,2.4,1.1.4a.5.5,0,0,0,.5-.2q.2-.5-1.1-1.2t-1.6-.1a.5.5,0,0,0,.1.5Zm.5-7.2,5.8,8.1L24,58.5l-5.8-8.1Zm6.3.7a3.3,3.3,0,0,1,1.6,1.3,1.9,1.9,0,0,1,0,1.7A1.8,1.8,0,0,1,25.4,54a3.3,3.3,0,0,1-2.1-.4q-2.5-1.1-1.6-3A1.8,1.8,0,0,1,23,49.5,3.2,3.2,0,0,1,25.1,49.9ZM24,52.3l1.1.4a.5.5,0,0,0,.5-.2q.2-.5-1.1-1.2t-1.6-.1a.5.5,0,0,0,.1.5Z"/><path class="cls-2" d="M25.4,41.2a1.9,1.9,0,0,0-.3,1.8,3.6,3.6,0,0,0,1.4,1.7q2.4,1.7,3.6-.1a7,7,0,0,0,.9-2.1l1.3.9a6.2,6.2,0,0,1-1,2.2,3.7,3.7,0,0,1-2.6,1.7,4.9,4.9,0,0,1-3.3-1.1,5.4,5.4,0,0,1-1.6-1.8,3.6,3.6,0,0,1-.4-2.1,4.2,4.2,0,0,1,.8-2.1,5.9,5.9,0,0,1,2-1.7l.9,1.4-.9.6Z"/><path class="cls-2" d="M36.8,38.9l-2-.9-2.1,2.4,1.1,1.9-1.3,1.5-4.4-8.2,1.5-1.7,8.5,3.6Zm-3.4-1.6-3-1.4-.5-.3,2,3.4Z"/><path class="cls-2" d="M37.6,33.6l2.2,2.5-1.4,1.2-5.7-6.6L34.7,29a4.4,4.4,0,0,1,2.4-1.2,2.6,2.6,0,0,1,2.5,2.2,2.8,2.8,0,0,1-.3,1.5l4.4,1.2-1.6,1.3-3.8-1.2Zm-1-1.1.5-.4a2.3,2.3,0,0,0,.8-1.1,1,1,0,0,0-.3-1,1,1,0,0,0-.9-.4,2.6,2.6,0,0,0-1.2.7l-.4.4Z"/><path class="cls-2" d="M39.1,25.4l2.3-1.5a5.3,5.3,0,0,1,2.5-1.1,1.8,1.8,0,0,1,1.6.9,2.1,2.1,0,0,1,.4,1.3,1.5,1.5,0,0,1-.5,1h0a1.9,1.9,0,0,1,1.4-.1,2.2,2.2,0,0,1,1.1.9,2.2,2.2,0,0,1,.3,2,3.8,3.8,0,0,1-1.6,1.9l-2.7,1.8Zm3.5,1.8.9-.6a2,2,0,0,0,.8-.8.9.9,0,0,0-.1-.8.8.8,0,0,0-.7-.4,2.4,2.4,0,0,0-1.1.5l-.8.5Zm.8,1.2,1.3,1.9,1-.7a1.8,1.8,0,0,0,.8-.9,1.1,1.1,0,0,0-.2-.9q-.6-.9-1.9,0Z"/><path class="cls-2" d="M55.3,21.2a4.7,4.7,0,0,1,.5,3.5,4.7,4.7,0,0,1-5.5,2.7,4.7,4.7,0,0,1-2.4-2.5,4.6,4.6,0,0,1-.5-3.5A4.1,4.1,0,0,1,49.6,19a4,4,0,0,1,3.3-.3A4.7,4.7,0,0,1,55.3,21.2ZM49.5,24A3.6,3.6,0,0,0,51,25.7a2,2,0,0,0,1.8-.1q2-1,.7-3.6t-3.3-1.7a2,2,0,0,0-1.2,1.4A3.6,3.6,0,0,0,49.5,24Z"/><path class="cls-2" d="M65.4,22.5l-2.2.7L57.6,18h-.1l.9,2.3,1.2,3.9-1.6.5-2.6-8.3,2.2-.7,5.6,5.1h0l-.8-2.3-1.2-3.9,1.6-.5Z"/><path class="cls-2" d="M76.8,20.8l-2.3.3L69.9,15h-.1q.3,1.7.4,2.5l.5,4.1-1.6.2-1-8.6,2.3-.3,4.5,6h0q-.3-1.7-.4-2.4l-.5-4.1,1.7-.2Z"/><path class="cls-2" d="M83.2,20.9h-5V12.1h5v1.5H80.1v1.9h3v1.5h-3v2.2h3.2Z"/><path class="cls-2" d="M92.2,13.1l-.7,5.6a3.2,3.2,0,0,1-.6,1.6,2.8,2.8,0,0,1-1.4.9,4.5,4.5,0,0,1-2,.1,3.7,3.7,0,0,1-2.5-1.2,3,3,0,0,1-.6-2.4l.7-5.6,1.8.2-.7,5.3a2.2,2.2,0,0,0,.2,1.5,1.7,1.7,0,0,0,1.3.6,1.7,1.7,0,0,0,1.4-.3,2.2,2.2,0,0,0,.6-1.4l.7-5.3Z"/><path class="cls-2" d="M95.7,22.9l-1.8-.5,1.7-6.9-2.3-.6.4-1.5,6.4,1.6-.4,1.5-2.3-.6Z"/><path class="cls-2" d="M101.4,21.1l-1.2,3.1-1.7-.6,3-8.1,2.4.9a4.4,4.4,0,0,1,2.2,1.5,2.6,2.6,0,0,1-.8,3.3,2.8,2.8,0,0,1-1.5.5L105,26l-1.9-.7-.8-3.9Zm.5-1.4.6.2a2.3,2.3,0,0,0,1.3.2,1,1,0,0,0,.7-.7.9.9,0,0,0-.1-1,2.6,2.6,0,0,0-1.2-.7l-.5-.2Z"/><path class="cls-2" d="M109.9,28.7l.4-2.1-2.8-1.5L106,26.6l-1.8-.9,6.8-6.3,2,1-1.3,9.2Zm.7-3.7.6-3.3v-.6l-2.7,2.8Z"/><path class="cls-2" d="M111.9,29.8l4.9-7.2,1.5,1-4,5.9,2.9,2-.9,1.3Z"/><path class="cls-2" d="M127.2,36.5A4.3,4.3,0,0,1,124,38a5,5,0,0,1-3.4-1.6l-1.8-1.7,5.9-6.3,2,1.9a4.6,4.6,0,0,1,1.7,3.1A4.1,4.1,0,0,1,127.2,36.5Zm-1.4-1.3q1.9-2,.1-3.7l-.7-.7-3.9,4.1.6.5Q123.8,37.3,125.7,35.2Z"/><path class="cls-2" d="M128,44.3l-3.3-3.9,6.6-5.6,3.3,3.9-1.2,1-2.1-2.4-1.5,1.2,1.9,2.3-1.2,1-1.9-2.3-1.7,1.4,2.1,2.4Z"/><path class="cls-2" d="M128.5,45.1l7.2-4.9,1,1.5-5.9,4.1,2,2.9-1.3.9Z"/><path class="cls-2" d="M131.9,50.2l7.5-4.3.9,1.6-7.5,4.3Z"/><path class="cls-2" d="M143.5,53.9l.8,1.7-9.1,1-.9-1.8,6.6-6.4.8,1.7-4,3.7-.8.7-.7.5,1.9-.4Z"/><path class="cls-2" d="M138.1,64.3l-1.6-4.8,8.2-2.8,1.6,4.8-1.4.5-1-3-1.8.6.9,2.8-1.4.5-.9-2.8-2.1.7,1,3Z"/><path class="cls-2" d="M142,66.3l-3.3.7-.4-1.8,8.5-1.8.5,2.5a4.4,4.4,0,0,1-.1,2.7,2.6,2.6,0,0,1-3.2,1.1,2.8,2.8,0,0,1-1.2-1l-3.2,3.3-.4-2,2.8-2.7Zm1.5-.3v.6a2.3,2.3,0,0,0,.6,1.2,1,1,0,0,0,1,.2.9.9,0,0,0,.8-.6,2.6,2.6,0,0,0,0-1.4v-.5Z"/><path class="cls-2" d="M145.1,74.5l3.7,1.5.2,2-5.6-2.4-3.4.3-.2-1.8,3.3-.3,5.1-3.4.2,2Z"/><path class="cls-3" d="M80,143.8V143h1.5v.8Zm-1.6,0H76.9v-.8h1.5Zm4.7-.1v-.8h1.5v.8Zm-7.8-.1H73.7v-.8h1.5Zm11-.1v-.8l1.5-.2v.8Zm-14.1-.2-1.6-.2v-.8l1.5.2Zm17.2-.2v-.8l1.5-.2v.8Zm-20.3-.2-1.5-.3.2-.8,1.5.3Zm23.4-.3-.2-.8,1.5-.3.2.8ZM66,142.3l-1.5-.4.2-.8,1.5.4Zm29.5-.4-.2-.8,1.5-.4.2.8Zm-32.6-.4-1.5-.4.2-.7,1.5.4Zm35.6-.5-.2-.7,1.5-.5.2.7Zm-38.6-.4-1.5-.5.3-.7,1.5.5Zm41.6-.5-.3-.7,1.5-.5.3.7ZM57,139.5l-1.5-.6.3-.7,1.4.6Zm47.5-.6-.3-.7,1.4-.6.3.7Zm-50.4-.6-1.4-.7.3-.7,1.4.6Zm53.2-.7-.3-.7,1.4-.7.4.7ZM51.3,137l-1.4-.7.4-.7,1.4.7Zm58.9-.8-.4-.7,1.4-.8.4.7Zm-61.6-.7-1.4-.8.4-.7,1.3.8Zm64.4-.9-.4-.7,1.3-.8.4.7Zm-67-.7-1.3-.9.4-.6,1.3.8Zm69.7-1-.4-.6,1.3-.9.5.6Zm-72.3-.8-1.3-.9.5-.6,1.3.9Zm74.9-1-.5-.6,1.2-.9.5.6Zm-77.4-.8-1.2-1,.5-.6,1.2,1Zm79.8-1.1-.5-.6,1.2-1,.5.6Zm-82.3-.9-1.2-1,.5-.6,1.2,1Zm84.6-1.2-.5-.6,1.1-1.1.5.6Zm-87-.9-1.1-1.1.6-.6,1.1,1.1Zm89.2-1.2-.6-.5,1.1-1.1.6.5Zm-91.5-1-1.1-1.1.6-.5,1.1,1.1Zm93.6-1.3-.6-.5,1-1.2.6.5Zm-95.7-1-1-1.2.6-.5,1,1.2Zm97.8-1.3-.6-.5,1-1.2.6.5Zm-99.8-1.1-1-1.2.6-.5.9,1.2Zm101.7-1.4-.6-.5.9-1.3.6.4ZM27.8,116.7l-.9-1.3.6-.4.9,1.3Zm105.4-1.4-.6-.4.8-1.3.7.4ZM26,114.1l-.8-1.3.7-.4.8,1.3Zm108.8-1.5-.7-.4.8-1.3.7.4ZM24.4,111.4l-.8-1.4.7-.4.7,1.4Zm111.9-1.5-.7-.4.7-1.4.7.4ZM22.9,108.7l-.7-1.4.7-.3.7,1.4Zm114.8-1.5-.7-.3.6-1.4.7.3ZM21.6,105.8l-.6-1.4.7-.3.6,1.4ZM139,104.3l-.7-.3.6-1.4.7.3ZM20.4,102.9l-.5-1.5.7-.3.5,1.5Zm119.8-1.6-.7-.3.5-1.5.7.2ZM19.3,100l-.5-1.5.7-.2.5,1.5Zm121.8-1.6-.7-.2.4-1.5.8.2ZM18.4,96.9,18,95.4l.8-.2.4,1.5Zm123.5-1.6-.8-.2.4-1.5.8.2ZM17.6,93.9l-.3-1.5.8-.2.3,1.5Zm125-1.6-.8-.2.3-1.5h.8ZM17,90.8l-.2-1.5h.8l.2,1.5Zm126.1-1.6h-.8l.2-1.5h.8ZM16.6,87.7l-.2-1.6h.8l.2,1.5Zm126.9-1.6h-.8V84.5h.8ZM16.3,84.6c0-.5-.1-1-.1-1.6H17q0,.8.1,1.5Z"/><circle class="cls-4" cx="79.2" cy="77.4" r="45.7"/><path class="cls-5" d="M86.3,72.3h0C86.4,72.3,86.4,72.3,86.3,72.3Z"/><path class="cls-6" d="M32.7,133.5A71.5,71.5,0,0,1,12,102.1"/><path class="cls-2" d="M147.9,102.1H12a71.5,71.5,0,0,0,20.7,31.4h94.5A71.5,71.5,0,0,0,147.9,102.1Z"/><polygon class="cls-7" points="116.5 111.9 111.7 111.9 115.6 118 111.7 124.1 116.5 124.1 120.4 118 116.5 111.9"/><polygon class="cls-8" points="120.4 118 116.5 111.9 111.7 111.9 115.6 118 120.4 118"/><path class="cls-9" d="M112.8,118.1a6.9,6.9,0,0,0-7.2-6.7,7.2,7.2,0,0,0-6.9,4.8V109a1.2,1.2,0,0,0-1.3-1.2H94.9v16.3h2.6a1.4,1.4,0,0,0,1.3-1.4v-3.2a7.4,7.4,0,0,0,13.6.7h-4.1a3.6,3.6,0,0,1-2.5,1.1,3,3,0,0,1-3.2-2.3h10.1A4.8,4.8,0,0,0,112.8,118.1Zm-10.2-1.6a3.3,3.3,0,0,1,6.1,0Z"/><path class="cls-9" d="M89.5,109v3.9a6,6,0,0,0-4-1.4,6.4,6.4,0,0,0-6.5,4.8,4.5,4.5,0,0,0-1.6-3.8,6.3,6.3,0,0,0-3.5-1.1,4.2,4.2,0,0,0-3.7,1.7h-.1a1.2,1.2,0,0,0-1.3-1.1H66.6v4.6a7.2,7.2,0,0,0-7-5.1c-4,0-7.1,3-7.1,6.5,0,.1,0,.3,0,.4-1.7-2.1-6.1-1.7-6.1-3.2s.6-.7,1.1-.7,1.2.1,1.3,1h4c-.3-2.6-2.5-4-5.2-4s-5.2,1.5-5.2,4,1.6,2.6,3.2,3.2l1.8.5c.7.3,1.8.5,1.8,1.4s-.8.9-1.4.9-1.4-.3-1.5-1.1h-4c.3,2.9,2.7,4.1,5.5,4.1s5.3-1.3,5.5-3.9a7.4,7.4,0,0,0,13.1-.3H62a3.6,3.6,0,0,1-2.5,1.1,3,3,0,0,1-3.2-2.3H66.6v4.9h3.9v-6.7c0-1.4.5-2.5,2.4-2.5s2.2,1.2,2.2,2.5v5.4a1.3,1.3,0,0,0,1.3,1.4h2.6v-4.6a6.5,6.5,0,0,0,6.6,4.9c1.6,0,3.2-.3,4-1.7h0a1.5,1.5,0,0,0,1.5,1.3h2.4V107.8H90.7A1.2,1.2,0,0,0,89.5,109Zm-33,7.6a3.3,3.3,0,0,1,6.1,0ZM86.1,121a3.1,3.1,0,1,1,3.5-3.1A3.2,3.2,0,0,1,86.1,121Z"/><path class="cls-10" d="M79.9,151.4a71.1,71.1,0,0,0,47.2-17.9H32.7A71.1,71.1,0,0,0,79.9,151.4Z"/><g class="cls-11"><path class="cls-9" d="M109,94c3.3-.1,4.4-4.2,3.7-4.5S109,94,109,94Z"/><path class="cls-9" d="M113.6,86.1a1.4,1.4,0,0,1-.1,2.6s-.2,1.5.4,1.1a10.7,10.7,0,0,0,1.7-2.7Z"/><path class="cls-9" d="M71.1,71.2c-1.1.1-1.4-.3-2.3-.4-.9,2.8-4.5,5.4-3.7,7.4s4.9.9,6.2.6c-.7-1.4-.5-3.6.7-4.3C70.1,74,70.1,72.3,71.1,71.2Z"/><path class="cls-9" d="M80.5,41.6c-1-.8-1.6,2.5-2.3,3.3s-3.4,2.4-4.9,4.1l.8,1c1.1-.5,1.2-1.2.1-1.8,2.5-1.2,5.5-1.3,6.5-3.8C81,43.7,81,42,80.5,41.6Z"/><path class="cls-9" d="M84.8,72.8a8.7,8.7,0,0,0-1.3.8c1,.7,8-.8,5.9,2.4,1.3-.9,2.3-.1,3.4-.6A3.9,3.9,0,0,0,94.1,74c1.7-.5,5.1.5,6.4-.6a6,6,0,0,1-4.1-1.3c1-.3.3-.5.4-.7-2.8.1-5.7-1.8-8.9-.5a6.4,6.4,0,0,0-1.3,1.4c.1,0,.1,0,0,0h0c-.4,0-2-.1-1.5-.2s-1.6-.6-1.9-.6l-1.3,1A6.1,6.1,0,0,0,84.8,72.8Z"/><path class="cls-9" d="M48.1,66.7c2.8.4,2.7-.9,4.3,3.6s6.3,12.2,6.3,12.2a12.6,12.6,0,0,0,9.3,2c5.1-1.1,14.4-5.2,12.5-5.1S79.2,82,72.1,82s-8.7.3-10.5-2.3a20.6,20.6,0,0,1-2.8-9.1c0-2.1,3.6-8.8,4.6-10.2s5.9-4.6,5.1-7.8-7.1-3.4-1.5-6,8.6-4.4,9-6.7-3-2.8-1-5l2.3-2.1A45.2,45.2,0,0,0,34.5,77.9c0,.4,0,.7,0,1.1C37.3,75.9,45.7,66.4,48.1,66.7Z"/><path class="cls-9" d="M104.2,82.6c-2.1-.8-5.7-1.5-6.5-2.5s-3.7-3.9-3.7-3.9,0,2.2.2,4.5-2,1.2-2.4.9-1.2-2.9-1.9-2.7-3.6,0-4.3.9a5.2,5.2,0,0,0-.7,2.8s-2-.7-2.8.6a36.3,36.3,0,0,0-2,3.7s-3.9,3.3-4.1,4.2,2.1,3.4,3.3,4.2.6,2.7,2.1,2.5,4.1-2.2,5.4-2.9,3.8-2.2,5.5-2,5.8,1.5,7,1.1,3.1-.3,3.9-1.7a12.9,12.9,0,0,0,1.8-5C105,85.6,106.2,83.5,104.2,82.6Z"/><path class="cls-9" d="M100.8,95l2.4-1.2s.4,2.7-.4,2.8S100.8,95,100.8,95Z"/></g><path class="cls-2" d="M80,160a80,80,0,1,1,80-80A80.1,80.1,0,0,1,80,160ZM80,1.6A78.4,78.4,0,1,0,158.4,80,78.5,78.5,0,0,0,80,1.6Z"/></g></g></svg>